<?xml version="1.0" encoding="utf-8"?>
<!-- Generator: Adobe Illustrator 18.1.1, SVG Export Plug-In . SVG Version: 6.00 Build 0)  -->
<svg version="1.1" id="Layer_1" xmlns="http://www.w3.org/2000/svg" xmlns:xlink="http://www.w3.org/1999/xlink" x="0px" y="0px"
     viewBox="0 274.8 1000.3 438.5" enable-background="new 0 274.8 1000.3 438.5" xml:space="preserve">
<path fill="#FFFFFF" d="M156,601.8H0V274.8h156v34H40.6v106.9h103.7v34H40.6v117.6H156V601.8z"/>
<path fill="#FFFFFF" d="M408.1,601.8h-41.5l-17.7-82.6h-91.1l-18.2,82.6H198l78.8-326.9h53.7L408.1,601.8z M341.3,484L303,305.7L265.1,484H341.3z"
    />
<path fill="#FFFFFF" d="M600.5,522.4c0,26.5-7.2,46.3-21.7,59.6c-14.5,13.3-35.3,19.8-62.3,19.8h-66.3v-35.5h70.9c11.5,0,20.8-3.4,28-10.2
    c7.2-6.9,10.7-15,10.7-24.8v-48.7c0-9.3-2.4-16.9-7.2-22.7s-12.1-8.6-21.7-8.6h-14.1c-23,0-41.2-6.7-54.7-20.3
    c-13.4-13.6-20.1-33.2-20.1-59.1v-17.6c0-26.5,7.2-46.3,21.7-59.6c14.5-13.3,35.3-19.8,62.3-19.8h66.8v35.5h-71.4
    c-11.5,0-20.9,3.4-28,10.2c-7.2,6.9-10.7,15.2-10.7,24.8v35.5c0,9.6,3,17.7,9.3,24c6.2,6.4,14.4,9.6,24.3,9.6h14.1
    c22.1,0,39.3,6.4,51.6,19.2c12.3,12.8,18.4,32.1,18.4,57.8v31H600.5z"/>
<path fill="#FFFFFF" d="M823.3,310.3H749v291.3h-40.6V310.3h-74.3v-35.5h189.2V310.3z"/>
<path fill="#FFFFFF" d="M1000,528c0,25.9-6.2,44.6-18.7,56.2c-12.5,11.7-32.8,17.6-60.7,17.6h-61.2v-35h65.4c11.8,0,20.6-2.7,26.2-8.1
    s8.5-14.1,8.5-25.9v-59.3c0-10.2-3-18.4-9.3-24.4c-6.2-6.1-14.5-9.1-24.8-9.1h-61.2V274.8h129v35H904v94.8h19.2
    c24,0,42.8,5.9,56.6,17.7c13.7,11.8,20.6,30.2,20.6,55.1V528H1000z"/>
<path fill="#FFFFFF" d="M946.1,336.5h-13.4v52.4h-7.4v-52.4H912v-6.4h34v6.4H946.1z"/>
<path fill="#FFFFFF" d="M990.6,388.9h-7.4v-27H966v27h-7.4v-58.8h7.4v25.6h17.3v-25.6h7.4V388.9z"/>
<line fill="#FFFFFF" stroke="#FFFFFF" stroke-width="4" stroke-miterlimit="10" x1="313.2" y1="636.9" x2="691.8" y2="636.9"/>
<g>
    <path fill="#FFFFFF" d="M348.4,703.6c0.3,0,0.6,0.1,0.9,0.4l2.4,2.6c-1.8,2.1-4,3.8-6.6,4.9c-2.6,1.2-5.7,1.8-9.4,1.8c-3.2,0-6.1-0.6-8.7-1.7
        c-2.6-1.1-4.8-2.7-6.7-4.7c-1.8-2-3.3-4.4-4.3-7.2c-1-2.8-1.5-5.9-1.5-9.2c0-3.3,0.5-6.4,1.6-9.2c1.1-2.8,2.6-5.2,4.6-7.2
        c2-2,4.3-3.6,7.1-4.7c2.7-1.1,5.8-1.7,9.1-1.7c3.3,0,6.1,0.5,8.5,1.5c2.4,1,4.5,2.4,6.3,4.1l-2,2.8c-0.1,0.2-0.3,0.4-0.5,0.5
        c-0.2,0.1-0.5,0.2-0.8,0.2c-0.3,0-0.6-0.1-0.9-0.3c-0.3-0.2-0.7-0.4-1.1-0.7c-0.4-0.3-0.9-0.6-1.5-0.9c-0.6-0.3-1.2-0.6-2-0.9
        c-0.8-0.3-1.7-0.5-2.7-0.7c-1-0.2-2.2-0.3-3.5-0.3c-2.4,0-4.6,0.4-6.5,1.2c-2,0.8-3.7,2-5.1,3.5c-1.4,1.5-2.5,3.3-3.3,5.5
        c-0.8,2.2-1.2,4.6-1.2,7.3c0,2.8,0.4,5.2,1.2,7.4c0.8,2.2,1.9,4,3.3,5.5s3,2.6,4.9,3.4c1.9,0.8,3.9,1.2,6.1,1.2
        c1.3,0,2.5-0.1,3.6-0.2c1.1-0.2,2-0.4,2.9-0.7c0.9-0.3,1.7-0.7,2.5-1.3c0.8-0.5,1.6-1.1,2.3-1.8
        C347.8,703.8,348.1,703.6,348.4,703.6z"/>
    <path fill="#FFFFFF" d="M400.9,690.6c0,3.3-0.5,6.4-1.6,9.2c-1.1,2.8-2.5,5.2-4.5,7.2c-1.9,2-4.2,3.6-6.9,4.7c-2.7,1.1-5.7,1.7-8.9,1.7
        s-6.2-0.6-8.9-1.7c-2.7-1.1-5-2.7-6.9-4.7c-1.9-2-3.4-4.4-4.5-7.2c-1.1-2.8-1.6-5.8-1.6-9.2s0.5-6.4,1.6-9.2
        c1.1-2.8,2.5-5.2,4.5-7.2c1.9-2,4.2-3.6,6.9-4.7c2.7-1.1,5.7-1.7,8.9-1.7s6.2,0.6,8.9,1.7c2.7,1.1,5,2.7,6.9,4.7
        c1.9,2,3.4,4.4,4.5,7.2C400.3,684.2,400.9,687.2,400.9,690.6z M394.7,690.6c0-2.7-0.4-5.2-1.1-7.3s-1.8-4-3.2-5.5
        c-1.4-1.5-3-2.7-5-3.5c-1.9-0.8-4.1-1.2-6.5-1.2c-2.4,0-4.5,0.4-6.5,1.2c-1.9,0.8-3.6,2-5,3.5c-1.4,1.5-2.4,3.3-3.2,5.5
        s-1.1,4.6-1.1,7.3c0,2.7,0.4,5.2,1.1,7.3c0.7,2.2,1.8,4,3.2,5.5c1.4,1.5,3,2.6,5,3.4s4.1,1.2,6.5,1.2c2.4,0,4.6-0.4,6.5-1.2
        c1.9-0.8,3.6-1.9,5-3.4c1.4-1.5,2.4-3.3,3.2-5.5C394.3,695.7,394.7,693.3,394.7,690.6z"/>
    <path fill="#FFFFFF" d="M431.7,698.3c0.2,0.5,0.4,1.1,0.6,1.7c0.2-0.6,0.4-1.1,0.7-1.7c0.2-0.5,0.5-1.1,0.8-1.6l15-27.3c0.3-0.5,0.5-0.8,0.8-0.9
        s0.7-0.2,1.2-0.2h4.4v44.4h-5.3v-32.7c0-0.4,0-0.9,0-1.4c0-0.5,0.1-1,0.1-1.5L435,705c-0.5,0.9-1.2,1.4-2.2,1.4h-0.9
        c-0.9,0-1.7-0.5-2.2-1.4l-15.6-27.9c0.1,0.5,0.1,1.1,0.1,1.6c0,0.5,0,1,0,1.4v32.7h-5.3v-44.4h4.4c0.5,0,1,0.1,1.2,0.2
        c0.3,0.1,0.6,0.4,0.8,0.9l15.4,27.4C431.2,697.2,431.5,697.7,431.7,698.3z"/>
    <path fill="#FFFFFF" d="M472.8,696.2v16.6h-6v-44.4h13.1c2.8,0,5.3,0.3,7.3,1c2.1,0.7,3.8,1.6,5.2,2.8c1.4,1.2,2.4,2.6,3.1,4.3
        c0.7,1.7,1,3.6,1,5.7c0,2.1-0.4,4-1.1,5.7s-1.8,3.2-3.2,4.4s-3.1,2.2-5.2,2.9c-2.1,0.7-4.4,1-7.1,1H472.8z M472.8,691.4h7.1
        c1.7,0,3.2-0.2,4.5-0.7s2.4-1.1,3.3-1.9c0.9-0.8,1.6-1.8,2-2.9c0.5-1.1,0.7-2.4,0.7-3.8c0-2.8-0.9-5-2.6-6.6s-4.4-2.4-7.9-2.4h-7.1
        V691.4z"/>
    <path fill="#FFFFFF" d="M521.3,708c1.8,0,3.5-0.3,4.9-0.9c1.4-0.6,2.7-1.5,3.7-2.6c1-1.1,1.8-2.4,2.3-4s0.8-3.3,0.8-5.1v-27h6v27
        c0,2.6-0.4,4.9-1.2,7.1s-2,4.1-3.5,5.7c-1.5,1.6-3.4,2.9-5.6,3.8c-2.2,0.9-4.7,1.4-7.4,1.4c-2.7,0-5.2-0.5-7.4-1.4
        c-2.2-0.9-4.1-2.2-5.6-3.8c-1.5-1.6-2.7-3.5-3.5-5.7s-1.2-4.6-1.2-7.1v-27h6v27c0,1.9,0.3,3.6,0.8,5.1c0.5,1.6,1.3,2.9,2.3,4
        c1,1.1,2.2,2,3.7,2.6C517.8,707.7,519.5,708,521.3,708z"/>
    <path fill="#FFFFFF" d="M579.6,668.3v5.1h-14.4v39.4h-6v-39.4h-14.4v-5.1H579.6z"/>
    <path fill="#FFFFFF" d="M593,712.8h-6v-44.4h6V712.8z"/>
    <path fill="#FFFFFF" d="M609.3,668.5c0.3,0.1,0.6,0.4,0.9,0.8l25.7,33.5c-0.1-0.5-0.1-1.1-0.1-1.6c0-0.5,0-1,0-1.5v-31.5h5.3v44.4h-3
        c-0.5,0-0.9-0.1-1.2-0.2c-0.3-0.2-0.6-0.4-0.9-0.8l-25.7-33.5c0,0.5,0.1,1,0.1,1.5s0,1,0,1.4v31.7H605v-44.4h3.1
        C608.6,668.3,609,668.4,609.3,668.5z"/>
    <path fill="#FFFFFF" d="M671.7,708.4c1.2,0,2.3-0.1,3.3-0.2c1-0.1,1.9-0.3,2.8-0.5s1.7-0.5,2.5-0.8c0.8-0.3,1.6-0.7,2.4-1.1V696h-6.9
        c-0.4,0-0.7-0.1-0.9-0.3c-0.2-0.2-0.4-0.5-0.4-0.8v-3.4h13.6v17.1c-1.1,0.8-2.3,1.5-3.5,2.1c-1.2,0.6-2.5,1.1-3.9,1.5
        c-1.4,0.4-2.8,0.7-4.4,0.9c-1.6,0.2-3.3,0.3-5.1,0.3c-3.2,0-6.2-0.6-8.9-1.7c-2.7-1.1-5-2.7-6.9-4.7s-3.5-4.4-4.5-7.2
        c-1.1-2.8-1.6-5.9-1.6-9.2c0-3.4,0.5-6.5,1.6-9.3c1.1-2.8,2.6-5.2,4.6-7.2c2-2,4.4-3.5,7.2-4.6s5.9-1.6,9.4-1.6
        c1.8,0,3.4,0.1,4.9,0.4c1.5,0.3,2.9,0.6,4.2,1.1c1.3,0.5,2.5,1.1,3.6,1.8s2.1,1.5,3.1,2.3l-1.7,2.7c-0.4,0.6-0.8,0.8-1.4,0.8
        c-0.3,0-0.7-0.1-1.1-0.3c-0.5-0.3-1.1-0.6-1.7-1.1c-0.6-0.4-1.4-0.8-2.3-1.2s-2-0.7-3.3-1c-1.3-0.3-2.7-0.4-4.5-0.4
        c-2.5,0-4.8,0.4-6.8,1.2c-2,0.8-3.8,2-5.2,3.5c-1.4,1.5-2.5,3.4-3.3,5.5c-0.8,2.2-1.1,4.6-1.1,7.3c0,2.8,0.4,5.3,1.2,7.5
        c0.8,2.2,1.9,4.1,3.4,5.6c1.4,1.5,3.2,2.7,5.1,3.5C667.1,708,669.3,708.4,671.7,708.4z"/>
</g>
</svg>
