<?xml version="1.0" encoding="utf-8"?>
<!-- Generator: Adobe Illustrator 18.1.1, SVG Export Plug-In . SVG Version: 6.00 Build 0)  -->
<svg version="1.1" id="Layer_1" xmlns="http://www.w3.org/2000/svg" xmlns:xlink="http://www.w3.org/1999/xlink" x="0px" y="0px"
     viewBox="0 274.8 1000.3 325" enable-background="new 0 274.8 1000.3 325" xml:space="preserve" fill="#FFFFFF">
<path d="M156,601.8H0V274.8h156v34H40.6v106.9h103.7v34H40.6v117.6H156V601.8z"/>
<path d="M408.1,601.8h-41.5l-17.7-82.6h-91.1l-18.2,82.6H198l78.8-326.9h53.7L408.1,601.8z M341.3,484L303,305.7L265.1,484H341.3z"
    />
<path d="M600.5,522.4c0,26.5-7.2,46.3-21.7,59.6c-14.5,13.3-35.3,19.8-62.3,19.8h-66.3v-35.5h70.9c11.5,0,20.8-3.4,28-10.2
    c7.2-6.9,10.7-15,10.7-24.8v-48.7c0-9.3-2.4-16.9-7.2-22.7s-12.1-8.6-21.7-8.6h-14.1c-23,0-41.2-6.7-54.7-20.3
    c-13.4-13.6-20.1-33.2-20.1-59.1v-17.6c0-26.5,7.2-46.3,21.7-59.6c14.5-13.3,35.3-19.8,62.3-19.8h66.8v35.5h-71.4
    c-11.5,0-20.9,3.4-28,10.2c-7.2,6.9-10.7,15.2-10.7,24.8v35.5c0,9.6,3,17.7,9.3,24c6.2,6.4,14.4,9.6,24.3,9.6h14.1
    c22.1,0,39.3,6.4,51.6,19.2c12.3,12.8,18.4,32.1,18.4,57.8v31H600.5z"/>
<path d="M823.3,310.3H749v291.3h-40.6V310.3h-74.3v-35.5h189.2V310.3z"/>
<path d="M1000,528c0,25.9-6.2,44.6-18.7,56.2c-12.5,11.7-32.8,17.6-60.7,17.6h-61.2v-35h65.4c11.8,0,20.6-2.7,26.2-8.1
    s8.5-14.1,8.5-25.9v-59.3c0-10.2-3-18.4-9.3-24.4c-6.2-6.1-14.5-9.1-24.8-9.1h-61.2V274.8h129v35H904v94.8h19.2
    c24,0,42.8,5.9,56.6,17.7c13.7,11.8,20.6,30.2,20.6,55.1V528H1000z"/>
<path d="M946.1,336.5h-13.4v52.4h-7.4v-52.4H912v-6.4h34v6.4H946.1z"/>
<path d="M990.6,388.9h-7.4v-27H966v27h-7.4v-58.8h7.4v25.6h17.3v-25.6h7.4V388.9z"/>
</svg>
