<svg xmlns="http://www.w3.org/2000/svg" viewBox="0 0 186.8 33.6"><defs><style>.cls-1{fill:#fff;}</style></defs><title>Asset 2</title><g id="Layer_2" data-name="Layer 2"><g id="Layer_1-2" data-name="Layer 1"><path class="cls-1" d="M15.26,18.7q-2.06,1.85-6.1,1.85h-5V33.6H0V0H9.07q4.08,0,6.17,1.8t2.09,5.69V13Q17.33,16.85,15.26,18.7Zm-3-14.28A3.72,3.72,0,0,0,9.65,3.6H4.18V16.94H9.65a3.64,3.64,0,0,0,2.66-.84,3.64,3.64,0,0,0,.84-2.66V7.06A3.56,3.56,0,0,0,12.31,4.42Z"/><path class="cls-1" d="M36.58,0V3.5H24.72v11H35.38V18H24.72V30.1H36.58v3.5h-16V0Z"/><path class="cls-1" d="M47.37,33.6v-30H39.74V0H59.18V3.65H51.54v30Z"/><path class="cls-1" d="M78.41,0V3.5H66.56v11H77.22V18H66.56V30.1H78.41v3.5h-16V0Z"/><path class="cls-1" d="M83.82,31.56q-2.23-2-2.23-6.12V8.16q0-4.08,2.23-6.12a9.17,9.17,0,0,1,6.41-2H97V3.65h-7.3A4,4,0,0,0,86.87,4.7a3.39,3.39,0,0,0-1.1,2.54v19.1a3.39,3.39,0,0,0,1.1,2.54A4,4,0,0,0,89.75,30H97V33.6H90.23A9.17,9.17,0,0,1,83.82,31.56Z"/><path class="cls-1" d="M117.61,31.56a9.17,9.17,0,0,1-6.41,2h-1.92a9.17,9.17,0,0,1-6.41-2q-2.23-2-2.23-6.12V8.16q0-4.08,2.23-6.12a9.17,9.17,0,0,1,6.41-2h1.92a9.17,9.17,0,0,1,6.41,2q2.23,2,2.23,6.12V25.44Q119.84,29.52,117.61,31.56Zm-3-26.86a4,4,0,0,0-2.88-1.06H108.8a4,4,0,0,0-2.88,1.06,3.39,3.39,0,0,0-1.1,2.54v19.1a3.39,3.39,0,0,0,1.1,2.54A4,4,0,0,0,108.8,30h2.88a4,4,0,0,0,2.88-1.06,3.39,3.39,0,0,0,1.1-2.54V7.25A3.4,3.4,0,0,0,114.56,4.7Z"/><path class="cls-1" d="M127.73,19.68V33.6h-4.18V0h9q4.08,0,6.17,1.8t2.09,5.69V12.1q0,5.42-4.32,6.77l6.67,14.74h-4.56l-6.19-13.92Zm8.09-15.26a3.72,3.72,0,0,0-2.66-.82h-5.42V16.08h5.42a3.64,3.64,0,0,0,2.66-.84,3.64,3.64,0,0,0,.84-2.66V7.06A3.56,3.56,0,0,0,135.82,4.42Z"/><path class="cls-1" d="M162.09,0V3.5H150.24v11h10.66V18H150.24V30.1h11.86v3.5h-16V0Z"/><path class="cls-1" d="M173.74,33.6V18L165.15,0h4.61l6.34,14,6.34-14h4.37l-8.74,18V33.6Z"/></g></g></svg>